<svg xmlns="http://www.w3.org/2000/svg" viewBox="0 0 200 200" fill="#000">
  <!-- QR Code placeholder pattern -->
  <!-- Top-left corner -->
  <rect x="20" y="20" width="40" height="40" fill="#000"/>
  <rect x="30" y="30" width="20" height="20" fill="#fff"/>
  <rect x="25" y="25" width="10" height="10" fill="#000"/>
  <rect x="45" y="25" width="10" height="10" fill="#000"/>
  <rect x="25" y="45" width="10" height="10" fill="#000"/>
  
  <!-- Top-right corner -->
  <rect x="140" y="20" width="40" height="40" fill="#000"/>
  <rect x="150" y="30" width="20" height="20" fill="#fff"/>
  <rect x="145" y="25" width="10" height="10" fill="#000"/>
  <rect x="165" y="25" width="10" height="10" fill="#000"/>
  <rect x="145" y="45" width="10" height="10" fill="#000"/>
  
  <!-- Bottom-left corner -->
  <rect x="20" y="140" width="40" height="40" fill="#000"/>
  <rect x="30" y="150" width="20" height="20" fill="#fff"/>
  <rect x="25" y="145" width="10" height="10" fill="#000"/>
  <rect x="45" y="145" width="10" height="10" fill="#000"/>
  <rect x="25" y="165" width="10" height="10" fill="#000"/>
  
  <!-- Data pattern -->
  <rect x="80" y="30" width="10" height="10" fill="#000"/>
  <rect x="100" y="30" width="10" height="10" fill="#000"/>
  <rect x="120" y="30" width="10" height="10" fill="#000"/>
  <rect x="70" y="50" width="10" height="10" fill="#000"/>
  <rect x="90" y="50" width="10" height="10" fill="#000"/>
  <rect x="110" y="50" width="10" height="10" fill="#000"/>
  <rect x="130" y="50" width="10" height="10" fill="#000"/>
  <rect x="80" y="70" width="10" height="10" fill="#000"/>
  <rect x="100" y="70" width="10" height="10" fill="#000"/>
  <rect x="120" y="70" width="10" height="10" fill="#000"/>
  <rect x="70" y="90" width="10" height="10" fill="#000"/>
  <rect x="90" y="90" width="10" height="10" fill="#000"/>
  <rect x="110" y="90" width="10" height="10" fill="#000"/>
  <rect x="130" y="90" width="10" height="10" fill="#000"/>
  <rect x="80" y="110" width="10" height="10" fill="#000"/>
  <rect x="100" y="110" width="10" height="10" fill="#000"/>
  <rect x="120" y="110" width="10" height="10" fill="#000"/>
  <rect x="70" y="130" width="10" height="10" fill="#000"/>
  <rect x="90" y="130" width="10" height="10" fill="#000"/>
  <rect x="110" y="130" width="10" height="10" fill="#000"/>
  <rect x="130" y="130" width="10" height="10" fill="#000"/>
  <rect x="80" y="150" width="10" height="10" fill="#000"/>
  <rect x="100" y="150" width="10" height="10" fill="#000"/>
  <rect x="120" y="150" width="10" height="10" fill="#000"/>
  <rect x="70" y="170" width="10" height="10" fill="#000"/>
  <rect x="90" y="170" width="10" height="10" fill="#000"/>
  <rect x="110" y="170" width="10" height="10" fill="#000"/>
  <rect x="130" y="170" width="10" height="10" fill="#000"/>
</svg>
