<?xml version="1.0" encoding="UTF-8"?>
<svg version="1.1" xmlns="http://www.w3.org/2000/svg" width="682" height="563">
<path d="M0 0 C225.06 0 450.12 0 682 0 C682 185.79 682 371.58 682 563 C456.94 563 231.88 563 0 563 C0 377.21 0 191.42 0 0 Z " fill="#FBFCFB" transform="translate(0,0)"/>
<path d="M0 0 C0.79019531 0.47308594 1.58039063 0.94617188 2.39453125 1.43359375 C18.79524474 11.04909778 35.63652066 18.27607802 53.6875 24.1875 C57.1721277 25.34300914 60.6546232 26.50485411 64.13671875 27.66796875 C64.973703 27.94658752 65.81068726 28.2252063 66.67303467 28.51226807 C78.63682246 32.51816934 90.41286016 37.00626266 102 42 C102.67820801 42.28601074 103.35641602 42.57202148 104.05517578 42.86669922 C113.51076452 46.86053121 122.43003551 51.08853232 131.03808594 56.73339844 C133.39343102 58.25399703 135.77767374 59.72392109 138.1640625 61.1953125 C149.37943145 68.1503167 159.97440278 75.41337085 170 84 C171.15822266 84.98226562 171.15822266 84.98226562 172.33984375 85.984375 C174.24910274 87.63276494 176.12672551 89.31091777 178 91 C178.73992187 91.64839844 179.47984375 92.29679687 180.2421875 92.96484375 C191.06200622 102.52292642 201.16268607 112.56436471 210 124 C210.89701756 125.12118805 211.79415985 126.24227632 212.69140625 127.36328125 C229.30541508 148.4713584 245.65041984 174.50431019 252 201 C252.36013184 199.99138916 252.36013184 199.99138916 252.72753906 198.96240234 C260.17033588 178.33892349 269.07043467 158.80503914 282 141 C282.43779785 140.39526855 282.8755957 139.79053711 283.32666016 139.16748047 C291.88148964 127.40495181 300.76578903 115.89433293 311.23828125 105.76171875 C312.94060906 104.05939094 314.47049127 102.29505349 316 100.4375 C319.32130217 96.50992838 323.04479449 93.27802638 327 90 C327.56009766 89.53287598 328.12019531 89.06575195 328.69726562 88.58447266 C344.00244542 75.8500227 359.74816347 64.95273307 377 55 C377.83370117 54.51853516 378.66740234 54.03707031 379.52636719 53.54101562 C382.00978685 52.1172013 384.50239751 50.711267 387 49.3125 C387.70850098 48.90974854 388.41700195 48.50699707 389.14697266 48.09204102 C405.5957781 39.02050499 423.08577387 32.61570095 440.8125 26.5625 C462.57151347 19.13144341 483.58404446 10.60800012 504 0 C502.04815669 13.90945183 494.3445687 26.08318177 483.65234375 35.0390625 C467.73019631 46.81066488 449.343056 54.07043939 430.921875 60.9140625 C399.39859731 72.62993309 368.8874577 84.94772122 343 107 C341.78263162 108.01441838 340.56518083 109.02873785 339.34765625 110.04296875 C328.57158846 119.11850586 317.57484947 128.76545777 309 140 C313.18582084 136.98894631 317.16652695 133.89555687 320.9375 130.375 C332.31664054 120.14941494 345.4631601 112.02790674 359 105 C359.62181152 104.67080566 360.24362305 104.34161133 360.88427734 104.00244141 C380.43171353 93.76863411 402.14034096 87.10262576 423.65893555 82.54663086 C426.14163412 81.9669289 428.55458268 81.24102742 430.99609375 80.5078125 C437.93612552 78.5854819 444.98320078 77.8394678 452.12426758 77.06469727 C454.43131988 76.81317378 456.73604759 76.54528 459.04101562 76.27539062 C467.39157411 75.32529489 475.58103093 74.73277989 484 75 C482.93950301 81.05622661 479.94578467 84.39526135 476 89 C475.20916016 89.93585938 475.20916016 89.93585938 474.40234375 90.890625 C462.769998 103.58045673 445.48312411 108.20184418 429.06335449 110.59707642 C425.07753209 111.18361339 421.10149389 111.83021703 417.125 112.4765625 C416.33712097 112.60426529 415.54924194 112.73196808 414.73748779 112.86354065 C375.03464713 119.38443051 339.2294892 135.65757788 308 161 C309.45562809 160.32331788 310.91114206 159.64638962 312.36621094 158.96850586 C313.69044597 158.35206881 315.01534218 157.73705057 316.34082031 157.12329102 C320.103934 155.37489979 323.84381813 153.59125687 327.55859375 151.7421875 C354.79292916 138.28364144 384.01682242 131.89625233 414.3125 131.75 C415.00445465 131.7445517 415.6964093 131.73910339 416.40933228 131.73348999 C434.03811995 131.63026624 451.71599429 134.22412565 465 147 C466.30078125 149.75 466.30078125 149.75 467 152 C451.93265978 163.04310778 430.65174517 160.60110362 412.85656738 160.62164307 C406.44982754 160.63155839 400.04322729 160.67284035 393.63671875 160.7265625 C392.95147692 160.7320001 392.26623508 160.73743771 391.56022835 160.74304008 C379.95596585 160.84776059 368.51088296 161.51744157 357 163 C355.32949585 163.21076172 355.32949585 163.21076172 353.62524414 163.42578125 C314.23203896 168.9070423 277.92875692 184.11427485 252 215 C249.41991682 212.49363348 247.07873233 210.1018889 244.875 207.25 C228.93161718 187.80806923 203.18882084 177.55415121 180 170 C179.35716064 169.78899658 178.71432129 169.57799316 178.05200195 169.3605957 C169.49538855 166.59375324 160.90870001 164.43839339 152.0625 162.8125 C151.23081299 162.65789307 150.39912598 162.50328613 149.54223633 162.34399414 C146.70032057 161.84689515 143.85542111 161.41289037 141 161 C139.77539062 160.82194824 138.55078125 160.64389648 137.2890625 160.46044922 C121.97377849 158.41819098 106.56768893 158.59946666 91.14404297 158.46826172 C49.62549713 158.08034005 49.62549713 158.08034005 41 151 C40.24609375 148.8359375 40.24609375 148.8359375 40 147 C57.99771955 131.28106148 79.15783245 129.8979656 102 131 C108.03802248 131.41354758 114.00936431 132.15187411 120 133 C121.01449219 133.12117187 122.02898437 133.24234375 123.07421875 133.3671875 C148.13903441 136.79306189 171.81703754 148.49489497 194 160 C160.99426324 131.10336265 120.61053481 117.42817698 77.98266602 110.92529297 C66.4437122 109.1046804 55.04365767 106.63662876 44.625 101.1875 C43.95073975 100.83913086 43.27647949 100.49076172 42.58178711 100.13183594 C32.73818961 94.88986688 25.93878717 87.40307969 20 78 C20 77.01 20 76.02 20 75 C62.606086 73.76702645 106.98678551 86.53208014 145 105 C145.63083496 105.3005127 146.26166992 105.60102539 146.91162109 105.91064453 C165.5957177 114.90597264 182.50281623 128.26691531 197 143 C162.70019674 102.03079055 121.0554097 76.70517378 70.25 60.5 C52.30494402 54.6391568 34.55998723 46.08635499 20 34 C19.13375 33.38125 18.2675 32.7625 17.375 32.125 C8.39369822 24.08909841 1.19526669 12.04461046 0 0 Z " fill="#0E4568" transform="translate(90,324)"/>
<path d="M0 0 C0.66 0 1.32 0 2 0 C2.17523193 0.6700708 2.35046387 1.3401416 2.53100586 2.03051758 C4.30142639 8.67610984 6.30044932 15.19357735 8.5625 21.6875 C8.9018457 22.6664624 9.24119141 23.6454248 9.59082031 24.65405273 C12.21170703 32.0761633 15.16400999 39.32319368 18.25 46.5625 C21.81815821 54.94958007 24.94982529 63.09604358 27 72 C27.22171875 72.82886719 27.4434375 73.65773438 27.671875 74.51171875 C32.69708298 96.14048554 27.41433925 119.41182314 22.97998047 140.65209961 C20.30542525 153.84464693 18.65470854 167.18577237 16.88240051 180.52244568 C16.14130379 186.05941895 15.30444036 191.57731812 14.43212891 197.09521484 C10.71781157 220.78544615 8.83671434 244.71600635 6.671875 268.5859375 C6.55891586 269.83133301 6.44595673 271.07672852 6.32957458 272.35986328 C5.76863929 278.5548865 5.21191152 284.75024588 4.66235352 290.94628906 C4.55920837 292.10021149 4.45606323 293.25413391 4.34979248 294.44302368 C4.15579737 296.61389584 3.96359172 298.78492893 3.77349854 300.95614624 C3.34999083 305.67801774 2.88099444 310.33602832 2 315 C1.67 315 1.34 315 1 315 C0.91309906 314.12495819 0.82619812 313.24991638 0.73666382 312.34835815 C-4.22257395 261.2980057 -4.22257395 261.2980057 -10.3125 210.375 C-10.42901917 209.49841736 -10.54553833 208.62183472 -10.66558838 207.71868896 C-13.09014868 189.61458572 -15.82470314 171.56086729 -18.9375 153.5625 C-19.06595306 152.81495453 -19.19440613 152.06740906 -19.32675171 151.29721069 C-21.04356968 141.30786029 -22.81523302 131.33219175 -24.79467773 121.39086914 C-28.1690446 104.30361019 -29.57938605 84.71538516 -24 68 C-23.69449219 66.97132812 -23.38898438 65.94265625 -23.07421875 64.8828125 C-20.00969418 55.05404641 -16.06246814 45.56905209 -12.24487305 36.0144043 C-7.5760233 24.19071446 -3.67942412 12.1631203 0 0 Z " fill="#0D4669" transform="translate(341,11)"/>
<path d="M0 0 C3.09761822 0.01605992 6.19392527 0.00006881 9.29150391 -0.01904297 C22.20323279 -0.03276814 34.54003235 1.05323091 47.23291016 3.39111328 C48.31540039 3.57915527 49.39789063 3.76719727 50.51318359 3.9609375 C78.0533133 8.97846913 106.51022541 21.97935464 123.23291016 45.39111328 C123.23291016 46.05111328 123.23291016 46.71111328 123.23291016 47.39111328 C123.89291016 47.39111328 124.55291016 47.39111328 125.23291016 47.39111328 C125.57322266 46.57900391 125.57322266 46.57900391 125.92041016 45.75048828 C134.06494429 31.10971859 149.91017587 21.90885649 164.23291016 14.39111328 C165.02310547 13.96830078 165.81330078 13.54548828 166.62744141 13.10986328 C174.31863262 9.34770269 182.97393523 7.51778056 191.23291016 5.39111328 C193.03924927 4.91013184 193.03924927 4.91013184 194.88208008 4.41943359 C210.30080771 0.59421554 226.17048036 -0.10072544 241.984375 0 C244.99606037 0.01618395 248.00641927 -0.00002204 251.01806641 -0.01904297 C271.29915217 -0.04148798 292.60519768 1.53463456 309.23291016 14.39111328 C309.80654297 14.80232422 310.38017578 15.21353516 310.97119141 15.63720703 C315.01918619 18.70082591 317.03642673 21.91366629 319.23291016 26.39111328 C319.23291016 27.05111328 319.23291016 27.71111328 319.23291016 28.39111328 C306.27436897 32.71062701 289.2433199 28.85167728 276.15551758 26.90209961 C227.2261506 19.65293921 177.96825911 25.90701932 132.88330078 46.3293457 C131.95066406 46.74289307 131.01802734 47.15644043 130.05712891 47.58251953 C129.24332764 47.95578369 128.42952637 48.32904785 127.59106445 48.71362305 C123.08165032 50.00916339 119.46705704 48.17276901 115.42041016 46.20361328 C94.18926769 36.38948253 71.26756705 30.21775002 48.23291016 26.39111328 C47.56501465 26.27396973 46.89711914 26.15682617 46.20898438 26.03613281 C16.40079548 21.00959532 -16.21638233 23.81937925 -45.73193359 29.51220703 C-50.16287044 30.34803067 -54.25745622 30.63028617 -58.76708984 30.57861328 C-60.02521484 30.57216797 -61.28333984 30.56572266 -62.57958984 30.55908203 C-65.76708984 30.39111328 -65.76708984 30.39111328 -68.76708984 29.39111328 C-68.46464408 23.34219805 -65.81363071 19.65236856 -61.76708984 15.39111328 C-44.72670501 0.50384567 -21.45910598 -0.13185838 0 0 Z " fill="#0F4668" transform="translate(217.76708984375,502.60888671875)"/>
<path d="M0 0 C7.00734881 5.46271816 12.56548463 11.75695275 16.36914062 19.84472656 C16.70558594 20.50214844 17.04203125 21.15957031 17.38867188 21.83691406 C23.1980275 35.4716574 18.98553856 52.09885033 13.9230957 65.1730957 C11.50470447 70.88718615 8.58920744 76.29566225 5.61001587 81.7331543 C4.16952252 84.36432806 2.74874021 87.00597128 1.32676697 89.64718628 C0.29132739 91.57015189 -0.7463899 93.49187625 -1.78417969 95.41357422 C-10.56169147 111.72229323 -16.70351621 127.72190279 -20.63085938 145.84472656 C-20.96085937 145.84472656 -21.29085937 145.84472656 -21.63085938 145.84472656 C-21.82679688 144.84957031 -22.02273438 143.85441406 -22.22460938 142.82910156 C-27.43114756 117.86138436 -39.85550128 97.0278921 -52.89257812 75.43847656 C-61.30115219 61.44404476 -68.28706246 47.0957284 -64.93945312 30.39550781 C-61.9494841 18.82345196 -56.58903588 7.26594971 -45.96875 0.83886719 C-31.35695039 -7.25791781 -14.58877143 -10.33444108 0 0 Z " fill="#0C4569" transform="translate(362.630859375,349.1552734375)"/>
<path d="M0 0 C2.28675573 39.78954972 -16.05727364 81.90944693 -34.99267578 116.13037109 C-36.32279265 118.59911443 -37.53939728 121.11573954 -38.75805664 123.64086914 C-42.59243871 131.56848176 -46.89087666 139.19807893 -51.3125 146.8125 C-51.92375732 147.86961182 -52.53501465 148.92672363 -53.16479492 150.01586914 C-54.03648315 151.50268188 -54.03648315 151.50268188 -54.92578125 153.01953125 C-55.44567627 153.90745361 -55.96557129 154.79537598 -56.5012207 155.71020508 C-57.84914501 157.76952777 -59.1860479 159.35129125 -61 161 C-59.23916799 154.22346467 -57.24419246 147.60696748 -54.8671875 141.01953125 C-49.91911483 123.79043138 -52.68848967 104.17055301 -56.54370117 87.04174805 C-60.39830928 69.79397511 -58.53900764 52.98990281 -49.0625 37.88671875 C-41.14587943 26.80644867 -30.49745882 19.96667537 -19.30078125 12.55078125 C-14.03613825 9.0599624 -9.0141376 5.3391282 -4.046875 1.44140625 C-2 0 -2 0 0 0 Z " fill="#0E4568" transform="translate(528,158)"/>
<path d="M0 0 C2.80581756 1.32643589 5.2666744 2.81512394 7.765625 4.65234375 C8.48306885 5.17610596 9.2005127 5.69986816 9.93969727 6.23950195 C10.70209717 6.79984131 11.46449707 7.36018066 12.25 7.9375 C17.61886545 11.85924367 23.0110805 15.72234699 28.52490234 19.43798828 C43.17730905 29.32213035 54.74701797 40.53083449 58.68359375 58.546875 C60.40029428 71.85660257 58.39489863 85.37923991 55.46313477 98.38085938 C54.01933622 104.88280213 53.65074057 111.09760874 53.6875 117.75 C53.69241455 118.80695068 53.6973291 119.86390137 53.70239258 120.95288086 C53.87880986 132.75112572 56.43932293 143.15387216 60.46166992 154.20532227 C61.02710543 155.78568573 61.52001297 157.39162242 62 159 C61.67 159.66 61.34 160.32 61 161 C35.8230843 120.72248657 13.64694489 77.53109246 3 31 C2.80857422 30.17886719 2.61714844 29.35773438 2.41992188 28.51171875 C1.06236573 22.29734622 0.58900139 16.22370788 0.375 9.875 C0.33632812 8.91851562 0.29765625 7.96203125 0.2578125 6.9765625 C0.16479872 4.65121801 0.07896229 2.32585665 0 0 Z " fill="#0F4668" transform="translate(155,157)"/>
<path d="M0 0 C3.33339958 1.38850815 4.84580556 2.78815637 6.76953125 5.82421875 C7.26251709 6.59805908 7.75550293 7.37189941 8.26342773 8.16918945 C8.77462158 9.00023193 9.28581543 9.83127441 9.8125 10.6875 C10.34367432 11.54239014 10.87484863 12.39728027 11.42211914 13.27807617 C18.52824826 24.90638595 23.80196368 37.02145549 28 50 C28.32097656 50.90234375 28.64195312 51.8046875 28.97265625 52.734375 C32.93261234 65.47990808 33.44159835 82.80565878 27.74609375 95.01953125 C23.21928615 102.74649813 18.04044101 109.88369545 12 116.5 C2.23187239 127.21343028 -4.26535501 138.76866826 -10 152 C-10.33 152 -10.66 152 -11 152 C-11.23204156 141.77728028 -10.58543615 131.69272237 -9.83279419 121.50479126 C-8.74529902 106.76043939 -7.81473931 92.02348398 -7.16986084 77.25326538 C-6.51715045 62.41440125 -5.45971101 47.65711552 -4 32.875 C-3.91614044 32.02104645 -3.83228088 31.1670929 -3.74588013 30.28726196 C-2.73991695 20.15049448 -1.5415185 10.07111754 0 0 Z " fill="#104668" transform="translate(421,101)"/>
<path d="M0 0 C1.06806555 23.10186237 -6.14048819 42.22484709 -20.63671875 60.0078125 C-34.37896476 74.89236107 -54.19252041 81.99489539 -72.37109375 89.69995117 C-93.48472668 98.70256966 -115.14664589 109.46820014 -133 124 C-133.66 123.67 -134.32 123.34 -135 123 C-129.66506403 117.64176252 -124.3273304 112.28632537 -118.98613739 106.93432522 C-116.5053614 104.44835902 -114.02551227 101.9614835 -111.54785156 99.47241211 C-108.69098377 96.60247167 -105.82996269 93.73670258 -102.96875 90.87109375 C-102.09134155 89.98852402 -101.21393311 89.10595428 -100.30993652 88.19664001 C-95.90435863 83.79066611 -91.43368337 79.54440578 -86.7076416 75.48402405 C-84.56342222 73.62059256 -82.55329795 71.65072423 -80.5625 69.625 C-79.81226563 68.86703125 -79.06203125 68.1090625 -78.2890625 67.328125 C-77.53367187 66.55984375 -76.77828125 65.7915625 -76 65 C-71.08315883 59.9992537 -66.12830581 55.15772965 -60.80859375 50.5859375 C-58.24371791 48.33682391 -55.88355661 45.94099171 -53.5 43.5 C-49.818019 39.76793696 -46.06102919 36.19396415 -42.0703125 32.79296875 C-39.6172589 30.66853176 -37.25296853 28.45811363 -34.875 26.25 C-26.14407083 18.30184379 -16.77369622 11.19350304 -7.1875 4.3125 C-6.58252686 3.87808594 -5.97755371 3.44367188 -5.35424805 2.99609375 C-1.12752837 0 -1.12752837 0 0 0 Z " fill="#0F4668" transform="translate(597,233)"/>
<path d="M0 0 C4.04286551 1.410982 7.04653143 3.33666003 10.4375 5.9375 C10.9519165 6.33155029 11.46633301 6.72560059 11.99633789 7.1315918 C13.09868367 7.97846964 14.19880537 8.82824903 15.296875 9.68066406 C17.00322751 11.00250021 18.71965155 12.31034013 20.4375 13.6171875 C28.20702987 19.57408094 35.44431148 25.93776668 42.55957031 32.65673828 C44.54132838 34.50481165 46.58450888 36.27971797 48.625 38.0625 C54.68590633 43.4754476 60.34859286 49.29877036 66.04931641 55.08618164 C70.26883749 59.35144397 74.55950495 63.4253954 79.11083984 67.33349609 C82.83040707 70.61467545 86.24540523 74.20534599 89.7109375 77.75 C92.6215785 80.70015197 95.57192207 83.53099496 98.72265625 86.22485352 C102.99656323 89.94549698 107.00964266 93.88172333 111 97.90234375 C111.7211499 98.6249086 112.4422998 99.34747345 113.18530273 100.0919342 C115.45925415 102.37142604 117.72967954 104.6543924 120 106.9375 C121.55315235 108.49567506 123.10653567 110.05361993 124.66015625 111.61132812 C128.44277586 115.40489759 132.2225169 119.20131615 136 123 C132.41995908 123 132.06320617 122.4525031 129.4375 120.1875 C109.02905715 103.81443807 83.3052739 92.24210321 59.0625 82.875 C36.61582583 74.06461852 17.24312745 60.65347323 7.25 38.0625 C1.84703576 25.43589512 -0.20284517 13.72585665 0 0 Z " fill="#104668" transform="translate(87,234)"/>
<path d="M0 0 C2.73705273 2.73705273 2.64354051 4.83245 3.21875 8.6484375 C3.32156784 9.32434937 3.42438568 10.00026123 3.53031921 10.69665527 C3.8640102 12.92136725 4.18311642 15.14783561 4.5 17.375 C4.61082916 18.13653381 4.72165833 18.89806763 4.83584595 19.68267822 C6.63964345 32.14228178 7.83183458 44.54394025 8.54296875 57.1171875 C8.80997776 61.70285186 9.22355662 66.2524188 9.71615601 70.81768799 C11.05158941 83.23908753 11.60913584 95.64415138 12.0625 108.125 C12.17905807 111.24032336 12.2974563 114.35555121 12.41929626 117.47067261 C12.4938593 119.3850365 12.56536418 121.29952323 12.6330719 123.21414185 C12.83388905 128.46170071 13.21443002 133.65416563 13.78805542 138.87457275 C14.04645499 141.46586092 14.09968521 144.02203537 14.0625 146.625 C14.05347656 147.46289062 14.04445313 148.30078125 14.03515625 149.1640625 C14.02355469 149.76992187 14.01195312 150.37578125 14 151 C11.64872628 148.64872628 11.08741112 146.79926665 9.9375 143.6875 C5.64490597 133.16372109 -1.39768266 124.61524508 -8.6015625 115.9453125 C-22.35241448 99.05908711 -29.17945625 86.07543665 -27.796875 63.71484375 C-25.48769006 42.65608108 -15.32922663 15.32922663 0 0 Z " fill="#0F4669" transform="translate(259,101)"/>
<path d="M0 0 C0.66 0 1.32 0 2 0 C2.33794471 3.02038089 2.67048433 6.04119756 3 9.0625 C3.09539062 9.91005859 3.19078125 10.75761719 3.2890625 11.63085938 C3.81056158 16.45472589 4.10532727 21.14836264 4 26 C4.66 25.67 5.32 25.34 6 25 C6.40729228 22.67843403 6.74438677 20.3431213 7 18 C7.33 18 7.66 18 8 18 C8.24949584 29.85105258 7.66411137 41.26207161 6 53 C5.67 53 5.34 53 5 53 C4.28508211 46.09518054 3.5733248 39.19004055 2.86376953 32.28466797 C2.62198579 29.93530895 2.37947716 27.58602441 2.13623047 25.23681641 C1.78683162 21.86119573 1.44003584 18.48531626 1.09375 15.109375 C0.9843811 14.05820496 0.87501221 13.00703491 0.7623291 11.92401123 C0.66222534 10.94329651 0.56212158 9.96258179 0.45898438 8.95214844 C0.37015991 8.09055115 0.28133545 7.22895386 0.18981934 6.34124756 C0.01892867 4.23346781 0 2.11469598 0 0 Z " fill="#1E4A62" transform="translate(337,273)"/>
<path d="M0 0 C1.24136719 0.00515625 2.48273438 0.0103125 3.76171875 0.015625 C5.70111328 0.0465625 5.70111328 0.0465625 7.6796875 0.078125 C8.98035156 0.08328125 10.28101563 0.0884375 11.62109375 0.09375 C21.24618882 0.17387566 21.24618882 0.17387566 23.5546875 1.328125 C23.5546875 1.988125 23.5546875 2.648125 23.5546875 3.328125 C12.3346875 3.328125 1.1146875 3.328125 -10.4453125 3.328125 C-6.08612178 0.05873196 -5.17960308 -0.04248578 0 0 Z " fill="#CDDBE3" transform="translate(460.4453125,499.671875)"/>
<path d="M0 0 C7.15801225 5.82628904 13.52591766 12.4382985 20 19 C16.34612871 19 15.74263631 18.23143294 13 15.9375 C7.93124041 11.84575008 2.54330214 8.40887179 -3 5 C-2.01 3.35 -1.02 1.7 0 0 Z " fill="#2D5975" transform="translate(203,338)"/>
<path d="M0 0 C0.79921875 -0.01224609 1.5984375 -0.02449219 2.421875 -0.03710938 C7.1032708 -0.04865887 10.84691544 0.39075743 15.25 2.1875 C15.25 2.5175 15.25 2.8475 15.25 3.1875 C-3.56 3.6825 -3.56 3.6825 -22.75 4.1875 C-20.2662463 1.7037463 -19.18222478 1.85946884 -15.75 1.625 C-10.32945729 1.23894391 -5.5511406 0.00439173 0 0 Z " fill="#C5D5DE" transform="translate(216.75,499.8125)"/>
<path d="M0 0 C5.58649246 4.59545897 10.52512335 9.57161075 15.4375 14.875 C16.16904297 15.65875 16.90058594 16.4425 17.65429688 17.25 C19.43954378 19.16359799 21.22133673 21.08028467 23 23 C22.67 23.66 22.34 24.32 22 25 C21.42894531 24.39414062 20.85789062 23.78828125 20.26953125 23.1640625 C13.66802894 16.34216027 6.62858794 10.61980616 -1 5 C-0.67 3.35 -0.34 1.7 0 0 Z " fill="#DAEAEE" transform="translate(265,443)"/>
<path d="M0 0 C2.20509496 4.23144675 3.67209459 8.61087471 5.1875 13.125 C5.47302734 13.94871094 5.75855469 14.77242188 6.05273438 15.62109375 C6.31763672 16.40871094 6.58253906 17.19632812 6.85546875 18.0078125 C7.09934326 18.72598145 7.34321777 19.44415039 7.59448242 20.18408203 C8 22 8 22 7 24 C5.09501603 21.12287583 3.23174131 18.22094622 1.375 15.3125 C0.83359375 14.49587891 0.2921875 13.67925781 -0.265625 12.83789062 C-4.12876245 6.72125633 -4.12876245 6.72125633 -3.4609375 2.98046875 C-2 1 -2 1 0 0 Z " fill="#2A546E" transform="translate(209,294)"/>
<path d="M0 0 C0.33 0.99 0.66 1.98 1 3 C1.66 3.33 2.32 3.66 3 4 C2.38253906 4.4846875 1.76507813 4.969375 1.12890625 5.46875 C-4.75818158 10.12824113 -10.44241949 14.95253558 -16 20 C-16.66 19.67 -17.32 19.34 -18 19 C-16.12660182 16.95684406 -14.25133366 14.91545741 -12.375 12.875 C-11.59189453 12.02035156 -11.59189453 12.02035156 -10.79296875 11.1484375 C-7.28415811 7.33639631 -3.68571182 3.641439 0 0 Z " fill="#D2E3E9" transform="translate(416,445)"/>
<path d="M0 0 C-0.33 0.99 -0.66 1.98 -1 3 C-0.34 3.66 0.32 4.32 1 5 C-1.53919006 6.29673602 -4.08114238 7.58747837 -6.625 8.875 C-7.33785156 9.23980469 -8.05070312 9.60460937 -8.78515625 9.98046875 C-12.78751837 12.00000927 -16.68917073 13.7081111 -21 15 C-17.4915534 11.22167289 -13.52176724 8.27666344 -9.375 5.25 C-8.694375 4.74339844 -8.01375 4.23679687 -7.3125 3.71484375 C-6.66023438 3.23660156 -6.00796875 2.75835937 -5.3359375 2.265625 C-4.74345215 1.83024414 -4.1509668 1.39486328 -3.54052734 0.94628906 C-2 0 -2 0 0 0 Z " fill="#B4CEDA" transform="translate(416,472)"/>
<path d="M0 0 C0.66 0.99 1.32 1.98 2 3 C2.99 3.33 3.98 3.66 5 4 C1.37 10.27 -2.26 16.54 -6 23 C-7 21 -7 21 -6.47094727 18.84521484 C-6.02319946 17.54124756 -6.02319946 17.54124756 -5.56640625 16.2109375 C-5.24736328 15.26992188 -4.92832031 14.32890625 -4.59960938 13.359375 C-4.25736328 12.37453125 -3.91511719 11.3896875 -3.5625 10.375 C-3.05493164 8.88613281 -3.05493164 8.88613281 -2.53710938 7.3671875 C-1.69804913 4.90909552 -0.85209309 2.45359843 0 0 Z " fill="#2A536B" transform="translate(474,296)"/>
<path d="M0 0 C0.66 0 1.32 0 2 0 C2.03758423 0.91495239 2.03758423 0.91495239 2.07592773 1.84838867 C2.1924058 4.62827898 2.31489632 7.4078734 2.4375 10.1875 C2.47681641 11.14720703 2.51613281 12.10691406 2.55664062 13.09570312 C2.59853516 14.02705078 2.64042969 14.95839844 2.68359375 15.91796875 C2.73858032 17.19837036 2.73858032 17.19837036 2.79467773 18.50463867 C3.00531094 21.06454594 3.44841536 23.49333243 4 26 C3.34 26.33 2.68 26.66 2 27 C-0.66393467 20.96174808 -1.13895581 15.30923068 -1.125 8.75 C-1.12757813 7.52796875 -1.13015625 6.3059375 -1.1328125 5.046875 C-1 2 -1 2 0 0 Z " fill="#204C65" transform="translate(232,166)"/>
<path d="M0 0 C0 0.33 0 0.66 0 1 C-24.85284909 7.31183469 -24.85284909 7.31183469 -36 4 C-36 3.34 -36 2.68 -36 2 C-34.90042969 2.02320313 -33.80085937 2.04640625 -32.66796875 2.0703125 C-25.02936376 2.18110473 -17.88554291 2.07434571 -10.3828125 0.4453125 C-6.87440982 -0.2103562 -3.55877234 -0.1342933 0 0 Z " fill="#D0E1E7" transform="translate(186,530)"/>
<path d="M0 0 C1.28997894 0.00636726 1.28997894 0.00636726 2.60601807 0.01286316 C5.3470417 0.02962759 8.08732439 0.0672753 10.828125 0.10546875 C12.68879145 0.1205185 14.54946945 0.1342064 16.41015625 0.14648438 C20.9664304 0.17952376 25.52215216 0.23129042 30.078125 0.29296875 C30.078125 0.62296875 30.078125 0.95296875 30.078125 1.29296875 C28.870354 1.33055298 28.870354 1.33055298 27.63818359 1.36889648 C24.57772397 1.46548033 21.51735838 1.56459485 18.45703125 1.6652832 C16.51047685 1.72860314 14.5638328 1.7891484 12.6171875 1.84960938 C4.08192981 2.13266639 -4.40875858 2.62131436 -12.921875 3.29296875 C-9.10881341 -0.62400328 -5.10682337 -0.0949907 0 0 Z " fill="#C9DBE1" transform="translate(486.921875,454.70703125)"/>
<path d="M0 0 C2.04313484 0.7669334 4.08444372 1.53873202 6.125 2.3125 C7.26195312 2.74175781 8.39890625 3.17101562 9.5703125 3.61328125 C13 5 13 5 16.27734375 6.6796875 C19.55220057 8.26778163 20.58782568 8.08190893 24 7 C25.258125 6.649375 26.51625 6.29875 27.8125 5.9375 C28.864375 5.628125 29.91625 5.31875 31 5 C27.88073641 8.63914086 24.05813718 10.71281807 19.3125 11.375 C17 11 17 11 15.8046875 9.67578125 C13.19136375 7.24912348 10.07186043 6.13651301 6.8125 4.8125 C6.15830078 4.53986328 5.50410156 4.26722656 4.83007812 3.98632812 C3.22278908 3.31760202 1.61175038 2.65790075 0 2 C0 1.34 0 0.68 0 0 Z " fill="#D6E5EC" transform="translate(321,543)"/>
<path d="M0 0 C12.05007468 0.05182828 23.48809504 3.79428269 35 7 C27.6671956 9.06320764 19.86219612 6.53737205 13.01953125 3.65625 C9.74837253 2.5932816 6.42268786 2.48083771 3.00390625 2.30859375 C2.01197266 2.15583984 2.01197266 2.15583984 1 2 C0.67 1.34 0.34 0.68 0 0 Z " fill="#D6E7ED" transform="translate(266,529)"/>
<path d="M0 0 C0.33 0.99 0.66 1.98 1 3 C-0.2065625 3.8971875 -0.2065625 3.8971875 -1.4375 4.8125 C-5.52846787 8.19241869 -8.66448447 12.33518767 -11.94921875 16.4765625 C-13.55556192 18.45312952 -15.15393137 20.25356047 -17 22 C-17.66 21.67 -18.32 21.34 -19 21 C-16.96227334 18.62159516 -14.91909749 16.24793056 -12.875 13.875 C-12.30523437 13.20984375 -11.73546875 12.5446875 -11.1484375 11.859375 C-7.58468399 7.7286607 -3.90509833 3.81014153 0 0 Z " fill="#275169" transform="translate(401,430)"/>
<path d="M0 0 C0.33 0 0.66 0 1 0 C1.797837 6.69613196 2.12910853 13.25766581 2 20 C-0.60526888 17.39473112 -1.34134224 14.82060766 -2.625 11.375 C-3.07101562 10.18648437 -3.51703125 8.99796875 -3.9765625 7.7734375 C-4.31429688 6.85820312 -4.65203125 5.94296875 -5 5 C-3.68 5 -2.36 5 -1 5 C-0.67 3.35 -0.34 1.7 0 0 Z " fill="#365B6E" transform="translate(271,232)"/>
<path d="M0 0 C0 0.99 0 1.98 0 3 C-1.66666667 4.66666667 -3.33333333 6.33333333 -5 8 C-5 8.99 -5 9.98 -5 11 C-7.40625 13.04296875 -7.40625 13.04296875 -10.5 15.1875 C-11.5209375 15.90292969 -12.541875 16.61835938 -13.59375 17.35546875 C-14.3878125 17.89816406 -15.181875 18.44085938 -16 19 C-16.66 18.67 -17.32 18.34 -18 18 C-12.06 12.06 -6.12 6.12 0 0 Z " fill="#3C5E72" transform="translate(480,338)"/>
<path d="M0 0 C-5.22512279 1.46670113 -9.5814234 2.22577402 -15 2 C-15 2.66 -15 3.32 -15 4 C-19.86051596 6.59227518 -24.65271133 6.18689553 -30 6 C-21.97933506 1.77092213 -8.88790549 -2.94859424 0 0 Z " fill="#D6E7EC" transform="translate(417,530)"/>
<path d="M0 0 C0.33 0 0.66 0 1 0 C0.98259766 1.918125 0.98259766 1.918125 0.96484375 3.875 C0.95545731 5.58333186 0.94635803 7.29166532 0.9375 9 C0.92912109 9.83917969 0.92074219 10.67835938 0.91210938 11.54296875 C0.89647462 15.576736 0.99909566 19.47080732 1.5625 23.46875 C1.9930905 26.94423046 1.98377554 28.1993757 0 31 C-0.33 31 -0.66 31 -1 31 C-1.02932237 27.33335046 -1.04690637 23.6667316 -1.0625 20 C-1.07087891 18.97003906 -1.07925781 17.94007813 -1.08789062 16.87890625 C-1.10613637 11.14974387 -0.86475384 5.66515899 0 0 Z " fill="#244F69" transform="translate(417,135)"/>
<path d="M0 0 C2.08410658 0.08733973 4.16734669 0.19552278 6.25 0.3125 C7.99023438 0.39951172 7.99023438 0.39951172 9.765625 0.48828125 C13.20234005 1.03201274 14.3897713 1.83218294 17 4 C19.11264636 4.76681725 19.11264636 4.76681725 21.25 5.1875 C22.4875 5.455625 23.725 5.72375 25 6 C24.34 6.66 23.68 7.32 23 8 C19.33954197 7.5939765 16.05369782 6.36422625 12.625 5.0625 C8.44887995 3.50846344 4.30394792 2.14771945 0 1 C0 0.67 0 0.34 0 0 Z " fill="#355D78" transform="translate(304,537)"/>
<path d="M0 0 C-3.55860938 0.870957 -7.12234592 1.71876925 -10.6875 2.5625 C-12.19860352 2.9327832 -12.19860352 2.9327832 -13.74023438 3.31054688 C-14.71669922 3.53935547 -15.69316406 3.76816406 -16.69921875 4.00390625 C-17.59471436 4.21861572 -18.49020996 4.4333252 -19.4128418 4.65454102 C-22.21142436 5.02823115 -24.28225814 4.70459974 -27 4 C-27 3.67 -27 3.34 -27 3 C-5.23610179 -1.50580705 -5.23610179 -1.50580705 0 0 Z " fill="#CFDEE5" transform="translate(516,436)"/>
<path d="M0 0 C0.33 0.99 0.66 1.98 1 3 C-0.62339805 4.70884005 -2.29319053 6.37446717 -4 8 C-4.66 8 -5.32 8 -6 8 C-6 8.66 -6 9.32 -6 10 C-8.8125 12.1875 -8.8125 12.1875 -12 14 C-12.99 13.67 -13.98 13.34 -15 13 C-10.02718443 8.63425542 -5.03163018 4.29785078 0 0 Z " fill="#204B66" transform="translate(424,408)"/>
<path d="M0 0 C3.11242645 3.11242645 3.28697195 7.03674273 4.21875 11.25 C4.79190889 14.11654551 4.79190889 14.11654551 7 16 C6.9765625 18.1640625 6.9765625 18.1640625 6.625 20.625 C6.51414062 21.44226563 6.40328125 22.25953125 6.2890625 23.1015625 C6.19367188 23.72804688 6.09828125 24.35453125 6 25 C5.67 25 5.34 25 5 25 C4.73445313 23.85402344 4.46890625 22.70804687 4.1953125 21.52734375 C3.83863258 19.99737464 3.48185663 18.46742791 3.125 16.9375 C2.86396484 15.80924805 2.86396484 15.80924805 2.59765625 14.65820312 C1.52335236 10.06256983 0.33465943 5.52702051 -1 1 C-0.67 0.67 -0.34 0.34 0 0 Z " fill="#20435A" transform="translate(336,470)"/>
<path d="M0 0 C0.66 0 1.32 0 2 0 C1.03644647 19.00455581 1.03644647 19.00455581 0 27 C-0.33 27 -0.66 27 -1 27 C-1.02922646 23.62501842 -1.04687468 20.25006979 -1.0625 16.875 C-1.07087891 15.92367187 -1.07925781 14.97234375 -1.08789062 13.9921875 C-1.10449608 9.20981513 -1.00537055 4.70228431 0 0 Z " fill="#D2E2E8" transform="translate(418,108)"/>
<path d="M0 0 C-6.36817823 3.45316707 -13.86350058 5.03560819 -21 6 C-21 5.34 -21 4.68 -21 4 C-13.98860223 0.6403719 -7.82854406 -0.1957136 0 0 Z " fill="#D3E2E8" transform="translate(460,461)"/>
<path d="M0 0 C2.50037734 2.17424117 3.43628586 3.73045798 4 7 C1.05868109 7.98043964 -0.82501665 8.11621202 -3.88671875 8.09765625 C-4.82451172 8.09443359 -5.76230469 8.09121094 -6.72851562 8.08789062 C-7.70498047 8.07951172 -8.68144531 8.07113281 -9.6875 8.0625 C-11.16959961 8.05573242 -11.16959961 8.05573242 -12.68164062 8.04882812 C-15.12115474 8.03704303 -17.56054689 8.02059011 -20 8 C-20 7.67 -20 7.34 -20 7 C-9.605 6.505 -9.605 6.505 1 6 C0.67 4.02 0.34 2.04 0 0 Z " fill="#365B72" transform="translate(533,524)"/>
<path d="M0 0 C-3.57066027 2.31042723 -6.96949232 3.68570402 -11 5 C-11.99 5.66 -12.98 6.32 -14 7 C-14.99 6.34 -15.98 5.68 -17 5 C-14.9237343 3.96486753 -12.83868521 2.94733789 -10.75 1.9375 C-9.58984375 1.36902344 -8.4296875 0.80054688 -7.234375 0.21484375 C-4.09355667 -0.96485975 -3.00646952 -1.30230734 0 0 Z " fill="#285470" transform="translate(395,514)"/>
<path d="M0 0 C0.66 0.99 1.32 1.98 2 3 C1.21625 4.051875 0.4325 5.10375 -0.375 6.1875 C-1.95482884 8.38244427 -3.06121469 10.15483715 -4.0625 12.6875 C-5.19417942 15.4789759 -6.78062864 17.00256578 -9 19 C-7.6077541 14.37324343 -5.70479016 10.35313769 -3.375 6.125 C-2.74335938 4.97257812 -2.11171875 3.82015625 -1.4609375 2.6328125 C-0.97882813 1.76398438 -0.49671875 0.89515625 0 0 Z " fill="#234D67" transform="translate(363,479)"/>
<path d="M0 0 C0.33 0.99 0.66 1.98 1 3 C-0.24034412 4.32162881 -1.49268626 5.63200453 -2.75 6.9375 C-3.44609375 7.66839844 -4.1421875 8.39929688 -4.859375 9.15234375 C-7.00599725 11.00517646 -8.23532932 11.60771565 -11 12 C-9.49650623 8.33213607 -7.36271208 6.31089607 -4.375 3.75 C-3.14910156 2.69039063 -3.14910156 2.69039063 -1.8984375 1.609375 C-1.27195312 1.07828125 -0.64546875 0.5471875 0 0 Z " fill="#1F4F6C" transform="translate(412,453)"/>
<path d="M0 0 C0.69738281 0.19980469 1.39476562 0.39960938 2.11328125 0.60546875 C3.82927505 1.0991108 5.5401878 1.61035503 7.25 2.125 C6.92 2.785 6.59 3.445 6.25 4.125 C0.05759538 3.43695504 -5.76955594 1.84451285 -11.75 0.125 C-7.79003787 -2.79394115 -4.32204265 -1.31540428 0 0 Z " fill="#29516A" transform="translate(154.75,428.875)"/>
<path d="M0 0 C3.76534292 4.91131686 4.13130607 7.99596701 4.0625 14.125 C4.05798828 14.87910156 4.05347656 15.63320312 4.04882812 16.41015625 C4.03703499 18.27347127 4.01909942 20.13674555 4 22 C3.67 22 3.34 22 3 22 C1.94012568 14.67349017 0.88203453 7.35028773 0 0 Z " fill="#2B556D" transform="translate(324,174)"/>
<path d="M0 0 C4.60544645 0.30659488 7.90647159 1.78785567 11.875 4.0625 C12.84179688 4.61035156 13.80859375 5.15820312 14.8046875 5.72265625 C15.89136719 6.35494141 15.89136719 6.35494141 17 7 C13.23375329 8.25541557 11.62811066 7.37061958 8 6 C8 5.34 8 4.68 8 4 C4.7 3.34 1.4 2.68 -2 2 C-1.34 1.34 -0.68 0.68 0 0 Z " fill="#D9E7EE" transform="translate(287,500)"/>
<path d="M0 0 C4.83540096 2.61111652 8.87103901 5.37457083 13 9 C9.21286807 9 7.16645599 7.73107406 3.8125 6 C2.72582031 5.443125 1.63914062 4.88625 0.51953125 4.3125 C-0.31191406 3.879375 -1.14335937 3.44625 -2 3 C-1.34 2.67 -0.68 2.34 0 2 C0 1.34 0 0.68 0 0 Z " fill="#BAD2DD" transform="translate(274,476)"/>
<path d="M0 0 C-0.33 1.32 -0.66 2.64 -1 4 C-5.95 4.33 -10.9 4.66 -16 5 C-13.20083611 3.13389074 -11.18061731 2.31214617 -8 1.375 C-6.700625 0.98441406 -6.700625 0.98441406 -5.375 0.5859375 C-3 0 -3 0 0 0 Z " fill="#2F5C76" transform="translate(505,409)"/>
<path d="M0 0 C2.79387762 0.61620855 5.58480926 1.24249695 8.375 1.875 C9.1690625 2.04902344 9.963125 2.22304688 10.78125 2.40234375 C11.54179687 2.57636719 12.30234375 2.75039063 13.0859375 2.9296875 C13.7876709 3.08679199 14.4894043 3.24389648 15.21240234 3.40576172 C17 4 17 4 19 6 C15.04 6 11.08 6 7 6 C7 5.34 7 4.68 7 4 C6.030625 3.71125 5.06125 3.4225 4.0625 3.125 C1 2 1 2 0 0 Z " fill="#285570" transform="translate(172,407)"/>
<path d="M0 0 C0.33 0 0.66 0 1 0 C1 6.6 1 13.2 1 20 C0.01 20.33 -0.98 20.66 -2 21 C-1.01 10.605 -1.01 10.605 0 0 Z " fill="#C7D3D8" transform="translate(344,309)"/>
<path d="M0 0 C0 0.33 0 0.66 0 1 C-6.88002171 3.62096065 -13.72176039 3.18170362 -21 3 C-21 2.67 -21 2.34 -21 2 C-13.94546999 0.79556805 -7.16562789 -0.28100502 0 0 Z " fill="#C8D8DF" transform="translate(463,485)"/>
<path d="M0 0 C5.76830091 -0.2097564 11.54677139 -0.11567168 17 2 C17.99 3.485 17.99 3.485 19 5 C12.73 3.68 6.46 2.36 0 1 C0 0.67 0 0.34 0 0 Z " fill="#C3D5E0" transform="translate(265,506)"/>
<path d="M0 0 C0.33 0 0.66 0 1 0 C1.20190089 6.35987804 0.6277833 11.85221129 -1 18 C-1.66 17.67 -2.32 17.34 -3 17 C-2.69268013 14.35346869 -2.37940678 11.707885 -2.0625 9.0625 C-1.97548828 8.30775391 -1.88847656 7.55300781 -1.79882812 6.77539062 C-1.11328125 1.11328125 -1.11328125 1.11328125 0 0 Z " fill="#1D4A64" transform="translate(367,122)"/>
<path d="M0 0 C1.26175847 3.78527542 0.72938114 4.46262949 -1 8 C-4.14760563 13.60732394 -4.14760563 13.60732394 -6 16 C-6.66 16 -7.32 16 -8 16 C-6.57250019 12.20950293 -4.83763458 8.72877544 -2.875 5.1875 C-2.33617187 4.21167969 -1.79734375 3.23585938 -1.2421875 2.23046875 C-0.83226562 1.49441406 -0.42234375 0.75835937 0 0 Z " fill="#2C5670" transform="translate(251,112)"/>
<path d="M0 0 C4.33333333 4.33333333 8.66666667 8.66666667 13 13 C12.67 13.66 12.34 14.32 12 15 C7.66666667 10.66666667 3.33333333 6.33333333 -1 2 C-0.67 1.34 -0.34 0.68 0 0 Z " fill="#B1CEDB" transform="translate(275,453)"/>
<path d="M0 0 C2.10409639 -0.02701408 4.20829178 -0.04640223 6.3125 -0.0625 C7.48425781 -0.07410156 8.65601563 -0.08570313 9.86328125 -0.09765625 C13 0 13 0 16 1 C16 1.66 16 2.32 16 3 C16.66 3.33 17.32 3.66 18 4 C13.875 3.3125 9.75 2.625 5.625 1.9375 C4.56539062 1.76089844 3.50578125 1.58429688 2.4140625 1.40234375 C1.61742187 1.26957031 0.82078125 1.13679688 0 1 C0 0.67 0 0.34 0 0 Z " fill="#CAD9E0" transform="translate(210,457)"/>
<path d="M0 0 C0.33 0 0.66 0 1 0 C1.09688221 5.44693314 1.12862175 10.63904667 0 16 C-0.33 16 -0.66 16 -1 16 C-1.22127098 13.70954632 -1.4266504 11.41755236 -1.625 9.125 C-1.74101562 7.84882813 -1.85703125 6.57265625 -1.9765625 5.2578125 C-1.98816406 3.64519531 -1.98816406 3.64519531 -2 2 C-1.34 1.34 -0.68 0.68 0 0 Z " fill="#335566" transform="translate(343,310)"/>
<path d="M0 0 C-0.33 0.99 -0.66 1.98 -1 3 C-0.34 3.66 0.32 4.32 1 5 C-1.35438733 6.42944945 -2.48032433 7.08661261 -5.25 6.625 C-5.8275 6.41875 -6.405 6.2125 -7 6 C-5.52522876 2.59668175 -4.14385429 0 0 0 Z " fill="#D6E4EB" transform="translate(416,472)"/>
<path d="M0 0 C6.57315478 -0.36517527 11.79485526 0.86380263 18 3 C17.67 3.66 17.34 4.32 17 5 C11.30694567 3.76123355 5.64629987 2.43723997 0 1 C0 0.67 0 0.34 0 0 Z " fill="#2A4E65" transform="translate(200,440)"/>
<path d="M0 0 C4.455 0.99 4.455 0.99 9 2 C9 2.66 9 3.32 9 4 C10.65 4.33 12.3 4.66 14 5 C14 5.66 14 6.32 14 7 C4.22210581 3.99633316 4.22210581 3.99633316 0 1 C0 0.67 0 0.34 0 0 Z " fill="#254C65" transform="translate(134,310)"/>
<path d="M0 0 C0.33 0.66 0.66 1.32 1 2 C-3.95 2.66 -8.9 3.32 -14 4 C-13.67 3.01 -13.34 2.02 -13 1 C-8.60563789 0.14256349 -4.47427924 -0.08948558 0 0 Z " fill="#254D67" transform="translate(446,485)"/>
<path d="M0 0 C5.67177385 -0.45374191 8.5975268 0.34916857 13 4 C13 4.66 13 5.32 13 6 C8.52761347 4.58192622 4.28853694 2.88695626 0 1 C0 0.67 0 0.34 0 0 Z " fill="#2D5671" transform="translate(226,448)"/>
<path d="M0 0 C0.66 0.33 1.32 0.66 2 1 C-0.31 5.62 -2.62 10.24 -5 15 C-6 11 -6 11 -5 8 C-4.34 8 -3.68 8 -3 8 C-3 6.35 -3 4.7 -3 3 C-2.01 2.67 -1.02 2.34 0 2 C0 1.34 0 0.68 0 0 Z " fill="#2A556F" transform="translate(361,439)"/>
<path d="M0 0 C6.06892629 -0.25287193 11.16200408 0.30167391 17 2 C17 2.66 17 3.32 17 4 C16.27554687 3.86722656 15.55109375 3.73445312 14.8046875 3.59765625 C9.87508895 2.69718291 4.94677877 1.80218034 0 1 C0 0.67 0 0.34 0 0 Z " fill="#264D64" transform="translate(272,529)"/>
<path d="M0 0 C0.99 0.33 1.98 0.66 3 1 C0 4 -3 7 -6 10 C-6.66 9.67 -7.32 9.34 -8 9 C-5.36 6.03 -2.72 3.06 0 0 Z " fill="#B5CFD9" transform="translate(406,455)"/>
<path d="M0 0 C0.33 0.99 0.66 1.98 1 3 C-0.87109375 5.69921875 -0.87109375 5.69921875 -3.4375 8.6875 C-4.28183594 9.68136719 -5.12617188 10.67523438 -5.99609375 11.69921875 C-6.98802734 12.83810547 -6.98802734 12.83810547 -8 14 C-8.66 13.67 -9.32 13.34 -10 13 C-5.05 6.565 -5.05 6.565 0 0 Z " fill="#CEE0E7" transform="translate(441,206)"/>
<path d="M0 0 C2.45898655 -0.08076963 4.91533742 -0.14037143 7.375 -0.1875 C8.07367188 -0.21263672 8.77234375 -0.23777344 9.4921875 -0.26367188 C11.5234375 -0.29296875 11.5234375 -0.29296875 15 0 C15.66 0.99 16.32 1.98 17 3 C11.39 2.34 5.78 1.68 0 1 C0 0.67 0 0.34 0 0 Z " fill="#C4D6DE" transform="translate(486,503)"/>
<path d="M0 0 C1.3357457 3.77371512 0.72408671 6.85831347 0.0625 10.75 C-0.13214844 11.92046875 -0.32679688 13.0909375 -0.52734375 14.296875 C-0.68332031 15.18890625 -0.83929688 16.0809375 -1 17 C-1.66 16.34 -2.32 15.68 -3 15 C-2.58862454 9.8578067 -1.30864128 4.97283686 0 0 Z " fill="#C9D9E1" transform="translate(346,475)"/>
<path d="M0 0 C1.74965358 -0.05429959 3.49979787 -0.09292823 5.25 -0.125 C6.22453125 -0.14820313 7.1990625 -0.17140625 8.203125 -0.1953125 C11.0196498 0.00137219 12.60949036 0.55431084 15 2 C10.37122006 3.34383934 5.66534956 3.10850248 1 2 C0.67 1.34 0.34 0.68 0 0 Z " fill="#D9E6EA" transform="translate(220,484)"/>
<path d="M0 0 C3.3 0 6.6 0 10 0 C10.33 0.66 10.66 1.32 11 2 C7.37 2.33 3.74 2.66 0 3 C0 2.01 0 1.02 0 0 Z " fill="#1D4C6B" transform="translate(506,433)"/>
<path d="M0 0 C0.66 0.33 1.32 0.66 2 1 C-4 7 -4 7 -6.5625 7.0625 C-7.7690625 7.0315625 -7.7690625 7.0315625 -9 7 C-6.3765992 4.08511023 -3.28183606 2.11496102 0 0 Z " fill="#25506A" transform="translate(458,384)"/>
<path d="M0 0 C4.13621084 3.3810038 7.81316569 6.66590534 11 11 C7.96147295 9.59023295 5.4060405 7.91129772 2.75 5.875 C2.04359375 5.33617187 1.3371875 4.79734375 0.609375 4.2421875 C0.07828125 3.83226562 -0.4528125 3.42234375 -1 3 C-0.67 2.01 -0.34 1.02 0 0 Z " fill="#647987" transform="translate(212,347)"/>
<path d="M0 0 C1.32 0.33 2.64 0.66 4 1 C2.87749844 2.62672685 1.75191267 4.25132582 0.625 5.875 C-0.31472656 7.23238281 -0.31472656 7.23238281 -1.2734375 8.6171875 C-3 11 -3 11 -5 13 C-4.67 11.02 -4.34 9.04 -4 7 C-3.34 7 -2.68 7 -2 7 C-2 6.01 -2 5.02 -2 4 C-1.34 4 -0.68 4 0 4 C0 2.68 0 1.36 0 0 Z " fill="#D6E6ED" transform="translate(480,190)"/>
<path d="M0 0 C4.62 0 9.24 0 14 0 C14 0.33 14 0.66 14 1 C10.37 1.33 6.74 1.66 3 2 C2.67 3.32 2.34 4.64 2 6 C0 3 0 3 0 0 Z " fill="#2A4F65" transform="translate(110,399)"/>
<path d="M0 0 C0.66 0.33 1.32 0.66 2 1 C1.01 1.33 0.02 1.66 -1 2 C-1 2.99 -1 3.98 -1 5 C-3.3125 7.25 -3.3125 7.25 -6 9 C-6.99 8.67 -7.98 8.34 -9 8 C-7.87811441 6.85111717 -6.75238316 5.70598863 -5.625 4.5625 C-4.99851562 3.92441406 -4.37203125 3.28632813 -3.7265625 2.62890625 C-2 1 -2 1 0 0 Z " fill="#2D5770" transform="translate(506,313)"/>
<path d="M0 0 C0.66 0.66 1.32 1.32 2 2 C1.69890649 6.06476236 -0.96633261 9.58868696 -3 13 C-4 11 -4 11 -3.22265625 8.3984375 C-2.83980469 7.40070313 -2.45695312 6.40296875 -2.0625 5.375 C-1.68222656 4.37210937 -1.30195313 3.36921875 -0.91015625 2.3359375 C-0.60980469 1.56507813 -0.30945313 0.79421875 0 0 Z " fill="#506B7A" transform="translate(471,306)"/>
<path d="M0 0 C0.99 1.485 0.99 1.485 2 3 C2.66 3 3.32 3 4 3 C3.39009109 6.55780196 2.4216319 9.6828589 1 13 C0.67 13 0.34 13 0 13 C0 8.71 0 4.42 0 0 Z " fill="#3E6173" transform="translate(410,240)"/>
<path d="M0 0 C2.31 0.66 4.62 1.32 7 2 C7 2.66 7 3.32 7 4 C7.61875 4.0825 8.2375 4.165 8.875 4.25 C11 5 11 5 12.25 7.0625 C12.4975 7.701875 12.745 8.34125 13 9 C7.97290493 7.42903279 3.97133531 4.38006951 0 1 C0 0.67 0 0.34 0 0 Z " fill="#D6E8EC" transform="translate(163,162)"/>
<path d="M0 0 C0.66 0 1.32 0 2 0 C1.38390949 4.00458831 -0.55060653 6.83019669 -3 10 C-3.99 10 -4.98 10 -6 10 C-5.34 9.34 -4.68 8.68 -4 8 C-2.98034573 5.67518826 -1.97940398 3.34205301 -1 1 C-0.67 0.67 -0.34 0.34 0 0 Z " fill="#376582" transform="translate(400,458)"/>
<path d="M0 0 C-1 3 -1 3 -4.3125 4.75 C-7.93653994 5.97848812 -8.6258971 6.10235591 -12 5 C-10.37750059 4.16180842 -8.75191503 3.3295884 -7.125 2.5 C-6.22007812 2.0359375 -5.31515625 1.571875 -4.3828125 1.09375 C-2 0 -2 0 0 0 Z " fill="#DBE8EF" transform="translate(391,502)"/>
<path d="M0 0 C1 3 1 3 -0.25 6.0625 C-2 9 -2 9 -5 11 C-5 7.58678765 -4.33132534 6.60527115 -2.5 3.8125 C-2.0359375 3.09707031 -1.571875 2.38164062 -1.09375 1.64453125 C-0.7328125 1.10183594 -0.371875 0.55914062 0 0 Z " fill="#26516C" transform="translate(374,462)"/>
<path d="M0 0 C-6.435 1.98 -6.435 1.98 -13 4 C-13 3.01 -13 2.02 -13 1 C-11.58622218 0.63447197 -10.16879424 0.28304505 -8.75 -0.0625 C-7.96109375 -0.25972656 -7.1721875 -0.45695312 -6.359375 -0.66015625 C-4 -1 -4 -1 0 0 Z " fill="#D9E7EC" transform="translate(492,413)"/>
<path d="M0 0 C4.75207471 -0.43200679 7.78210698 1.01510917 12 3 C11.01 4.485 11.01 4.485 10 6 C6.7 4.35 3.4 2.7 0 1 C0 0.67 0 0.34 0 0 Z " fill="#365E77" transform="translate(207,402)"/>
<path d="M0 0 C3.96 0 7.92 0 12 0 C11.67 1.65 11.34 3.3 11 5 C10.01 5.33 9.02 5.66 8 6 C8.33 4.68 8.66 3.36 9 2 C6.03 1.67 3.06 1.34 0 1 C0 0.67 0 0.34 0 0 Z " fill="#365D73" transform="translate(562,399)"/>
<path d="M0 0 C2.76170407 5.34305195 3.24581539 9.04777093 2 15 C1.67 15 1.34 15 1 15 C-0.03590199 9.94997778 -0.10251672 5.12583611 0 0 Z " fill="#123E58" transform="translate(335,248)"/>
<path d="M0 0 C0.99 0.33 1.98 0.66 3 1 C1.38405168 3.04119788 -0.2856382 5.04072937 -2 7 C-2.66 7 -3.32 7 -4 7 C-5.625 4.5 -5.625 4.5 -7 2 C-6.401875 2.185625 -5.80375 2.37125 -5.1875 2.5625 C-2.83591238 3.22093687 -2.83591238 3.22093687 0 2 C0 1.34 0 0.68 0 0 Z " fill="#C9DCE4" transform="translate(345,543)"/>
<path d="M0 0 C1.41623216 -0.05447047 2.83308191 -0.09300508 4.25 -0.125 C5.03890625 -0.14820313 5.8278125 -0.17140625 6.640625 -0.1953125 C9.20731941 0.0171622 10.7916067 0.71345895 13 2 C11.58566794 2.2236337 10.16832382 2.42826476 8.75 2.625 C7.96109375 2.74101563 7.1721875 2.85703125 6.359375 2.9765625 C3.67847541 3.00319395 2.27305911 2.36592084 0 1 C0 0.67 0 0.34 0 0 Z " fill="#CFDFE4" transform="translate(483,528)"/>
<path d="M0 0 C0 0.66 0 1.32 0 2 C-1.59915881 2.69906942 -3.20455045 3.38389468 -4.8125 4.0625 C-5.70582031 4.44535156 -6.59914063 4.82820313 -7.51953125 5.22265625 C-10 6 -10 6 -13 5 C-3.38461538 0 -3.38461538 0 0 0 Z " fill="#224964" transform="translate(507,388)"/>
<path d="M0 0 C1.65 0.33 3.3 0.66 5 1 C-0.14285714 5.42857143 -0.14285714 5.42857143 -4 6 C-4 5.34 -4 4.68 -4 4 C-3.34 4 -2.68 4 -2 4 C-2 3.34 -2 2.68 -2 2 C-1.34 2 -0.68 2 0 2 C0 1.34 0 0.68 0 0 Z " fill="#275774" transform="translate(560,363)"/>
<path d="M0 0 C0.99 0.33 1.98 0.66 3 1 C2.34 1.66 1.68 2.32 1 3 C0.01 3 -0.98 3 -2 3 C-2.2475 3.639375 -2.495 4.27875 -2.75 4.9375 C-4 7 -4 7 -6.125 7.75 C-7.053125 7.87375 -7.053125 7.87375 -8 8 C-3.375 2.25 -3.375 2.25 0 0 Z " fill="#2C556F" transform="translate(318,349)"/>
<path d="M0 0 C1.90389849 2.85584773 2.69462177 4.9311762 3.625 8.1875 C3.88539063 9.08855469 4.14578125 9.98960937 4.4140625 10.91796875 C4.60742188 11.60503906 4.80078125 12.29210937 5 13 C2.44256333 10.51440143 0.54856214 8.25198049 -1 5 C-0.6875 2.1875 -0.6875 2.1875 0 0 Z " fill="#556E7B" transform="translate(212,305)"/>
<path d="M0 0 C1.18771723 3.42943519 0.80226223 5.37784675 -0.4375 8.75 C-0.86869141 9.94882812 -0.86869141 9.94882812 -1.30859375 11.171875 C-1.53675781 11.77515625 -1.76492188 12.3784375 -2 13 C-2.66 13 -3.32 13 -4 13 C-3.52140759 11.39566191 -3.04210442 9.79153584 -2.5625 8.1875 C-2.29566406 7.29417969 -2.02882813 6.40085937 -1.75390625 5.48046875 C-1.19612127 3.64526945 -0.60655425 1.81966274 0 0 Z " fill="#375D75" transform="translate(334,33)"/>
<path d="M0 0 C0.33 0.99 0.66 1.98 1 3 C-1.97 5.475 -1.97 5.475 -5 8 C-5.66 7.34 -6.32 6.68 -7 6 C-4.69 4.02 -2.38 2.04 0 0 Z " fill="#2C5972" transform="translate(424,408)"/>
<path d="M0 0 C2.37948772 0.17625835 3.70225849 0.69719773 5.37890625 2.40234375 C6.62115486 3.90649092 7.81376056 5.45129851 9 7 C8.34 7.66 7.68 8.32 7 9 C5.83037314 7.69013727 4.66437056 6.3770374 3.5 5.0625 C2.8503125 4.33160156 2.200625 3.60070312 1.53125 2.84765625 C0 1 0 1 0 0 Z " fill="#224F69" transform="translate(115,408)"/>
<path d="M0 0 C0.66 0 1.32 0 2 0 C1.42437172 3.33864404 0.40936384 4.69102632 -2 7 C-2.33 7.99 -2.66 8.98 -3 10 C-3.66 10 -4.32 10 -5 10 C-3.66749209 6.4124787 -2.169283 3.1635377 0 0 Z " fill="#26516A" transform="translate(307,359)"/>
<path d="M0 0 C-2 2 -2 2 -4.3828125 2.1953125 C-5.28773438 2.17210937 -6.19265625 2.14890625 -7.125 2.125 C-8.49011719 2.09792969 -8.49011719 2.09792969 -9.8828125 2.0703125 C-10.58148437 2.04710937 -11.28015625 2.02390625 -12 2 C-7.66032699 -0.21504143 -4.80574417 -1.54470348 0 0 Z " fill="#C9DCE3" transform="translate(551,481)"/>
<path d="M0 0 C3.84685385 1.24762828 6.02929405 2.3870391 8 6 C7.67 6.99 7.34 7.98 7 9 C5 8 5 8 4.0625 5.625 C3.01626291 3.04017895 2.07886465 1.7953831 0 0 Z " fill="#D7E6EA" transform="translate(551,468)"/>
<path d="M0 0 C-0.33 0.99 -0.66 1.98 -1 3 C-5.455 3.495 -5.455 3.495 -10 4 C-4.7826087 0 -4.7826087 0 0 0 Z " fill="#29526B" transform="translate(586,330)"/>
<path d="M0 0 C0.33 0 0.66 0 1 0 C1 2.64 1 5.28 1 8 C-0.98 8.99 -0.98 8.99 -3 10 C-3.66 8.35 -4.32 6.7 -5 5 C-3.68 5 -2.36 5 -1 5 C-0.67 3.35 -0.34 1.7 0 0 Z " fill="#2B5771" transform="translate(271,232)"/>
<path d="M0 0 C0.66 0 1.32 0 2 0 C2.33 2.31 2.66 4.62 3 7 C1.68 7 0.36 7 -1 7 C-0.67 4.69 -0.34 2.38 0 0 Z " fill="#44677C" transform="translate(341,11)"/>
<path d="M0 0 C3.09902323 3.09902323 2.9898579 5.39147385 3.0625 9.75 C3.041875 10.8225 3.02125 11.895 3 13 C2.67 13 2.34 13 2 13 C1.47212358 11.02270019 0.95287097 9.04309608 0.4375 7.0625 C0.00244141 5.40927734 0.00244141 5.40927734 -0.44140625 3.72265625 C-0.62574219 2.82417969 -0.81007813 1.92570312 -1 1 C-0.67 0.67 -0.34 0.34 0 0 Z " fill="#2B536C" transform="translate(336,470)"/>
<path d="M0 0 C-1 3 -1 3 -4 5 C-6.6875 5.125 -6.6875 5.125 -9 5 C-2.87096774 0 -2.87096774 0 0 0 Z " fill="#D8E4EA" transform="translate(436,460)"/>
<path d="M0 0 C0 0.66 0 1.32 0 2 C-0.66 2 -1.32 2 -2 2 C-2 2.66 -2 3.32 -2 4 C-4.375 4.625 -4.375 4.625 -7 5 C-7.66 4.34 -8.32 3.68 -9 3 C-2.25 0 -2.25 0 0 0 Z " fill="#325D77" transform="translate(468,421)"/>
<path d="M0 0 C3.465 1.98 3.465 1.98 7 4 C5 5 3 6 1 7 C0.67 4.69 0.34 2.38 0 0 Z " fill="#2D5167" transform="translate(90,324)"/>
<path d="M0 0 C0.33 0.66 0.66 1.32 1 2 C-1.84936103 5.00765886 -4.23511958 7.27845212 -8 9 C-7.04270084 7.87411986 -6.08412105 6.7493285 -5.125 5.625 C-4.59132813 4.99851562 -4.05765625 4.37203125 -3.5078125 3.7265625 C-2.38567993 2.44163349 -1.20628025 1.20628025 0 0 Z " fill="#214B66" transform="translate(518,301)"/>
<path d="M0 0 C0 3 0 3 -1.3125 4.38671875 C-2.875 5.59114583 -4.4375 6.79557292 -6 8 C-6.33 7.01 -6.66 6.02 -7 5 C-4.69 3.35 -2.38 1.7 0 0 Z " fill="#204E68" transform="translate(514,167)"/>
<path d="M0 0 C0.53625 0.226875 1.0725 0.45375 1.625 0.6875 C-5 3.8125 -5 3.8125 -8.375 2.6875 C-2.95961538 -0.38942308 -2.95961538 -0.38942308 0 0 Z " fill="#254F67" transform="translate(552.375,477.3125)"/>
<path d="M0 0 C4.455 2.97 4.455 2.97 9 6 C8.01 6.495 8.01 6.495 7 7 C4.375 6.0625 4.375 6.0625 2 5 C2 4.34 2 3.68 2 3 C1.34 3 0.68 3 0 3 C0 2.01 0 1.02 0 0 Z " fill="#234A63" transform="translate(245,397)"/>
<path d="M0 0 C-3.96 1.98 -3.96 1.98 -8 4 C-8.33 3.34 -8.66 2.68 -9 2 C-8 0 -8 0 -6.1875 -0.6875 C-4 -1 -4 -1 0 0 Z " fill="#285773" transform="translate(497,336)"/>
<path d="M0 0 C2.475 0.99 2.475 0.99 5 2 C3.68 2.33 2.36 2.66 1 3 C1 5.97 1 8.94 1 12 C0.67 12 0.34 12 0 12 C0 8.04 0 4.08 0 0 Z " fill="#2C546B" transform="translate(87,234)"/>
<path d="M0 0 C2.31 0.33 4.62 0.66 7 1 C7.33 2.65 7.66 4.3 8 6 C6.66402348 5.19185349 5.331275 4.37836819 4 3.5625 C3.2575 3.11003906 2.515 2.65757812 1.75 2.19140625 C1.1725 1.79824219 0.595 1.40507813 0 1 C0 0.67 0 0.34 0 0 Z " fill="#C8D9E0" transform="translate(521,513)"/>
<path d="M0 0 C4.31392226 0.4793247 6.16569547 1.7457985 9 5 C5.74188938 5 3.89558441 4.4477922 1 3 C0.67 2.01 0.34 1.02 0 0 Z " fill="#28506B" transform="translate(356,347)"/>
<path d="M0 0 C1.32 0.66 2.64 1.32 4 2 C4 2.99 4 3.98 4 5 C2.68 4.67 1.36 4.34 0 4 C0 2.68 0 1.36 0 0 Z " fill="#2A506B" transform="translate(208,344)"/>
<path d="M0 0 C0.66 0.66 1.32 1.32 2 2 C0.25 3.5625 0.25 3.5625 -2 5 C-4.25 4.6875 -4.25 4.6875 -6 4 C-4.02 2.68 -2.04 1.36 0 0 Z " fill="#285771" transform="translate(497,179)"/>
<path d="M0 0 C0.99 0.33 1.98 0.66 3 1 C0.03 3.475 0.03 3.475 -3 6 C-2.625 3.5625 -2.625 3.5625 -2 1 C-1.34 0.67 -0.68 0.34 0 0 Z " fill="#17435F" transform="translate(368,525)"/>
<path d="M0 0 C0.66 0.33 1.32 0.66 2 1 C1.01 2.98 0.02 4.96 -1 7 C-1.66 6.67 -2.32 6.34 -3 6 C-2.42655063 3.13275314 -2.1385485 2.1385485 0 0 Z " fill="#2E556E" transform="translate(133,468)"/>
<path d="M0 0 C6.52307692 -0.36923077 6.52307692 -0.36923077 8.9375 1.5 C9.288125 1.995 9.63875 2.49 10 3 C8 4 8 4 6.0546875 3.44140625 C5.33539063 3.15136719 4.61609375 2.86132812 3.875 2.5625 C3.15054688 2.27503906 2.42609375 1.98757813 1.6796875 1.69140625 C0.84824219 1.34916016 0.84824219 1.34916016 0 1 C0 0.67 0 0.34 0 0 Z " fill="#C4D6DE" transform="translate(242,465)"/>
<path d="M0 0 C2.97 0 5.94 0 9 0 C9 0.99 9 1.98 9 3 C4.545 2.01 4.545 2.01 0 1 C0 0.67 0 0.34 0 0 Z " fill="#CBDBE1" transform="translate(229,461)"/>
<path d="M0 0 C0 0.66 0 1.32 0 2 C-0.99 2 -1.98 2 -3 2 C-3.66 3.32 -4.32 4.64 -5 6 C-5.99 5.34 -6.98 4.68 -8 4 C-2.25 0 -2.25 0 0 0 Z " fill="#DCE8ED" transform="translate(462,411)"/>
<path d="M0 0 C3.34373475 0.55728913 6.03312999 1.35173889 9 3 C6.21176345 4.0326802 5.1322726 4.04509293 2.25 3.0625 C1.5075 2.711875 0.765 2.36125 0 2 C0 1.34 0 0.68 0 0 Z " fill="#244C64" transform="translate(184,391)"/>
<path d="M0 0 C0.99 0.33 1.98 0.66 3 1 C-0.465 3.97 -0.465 3.97 -4 7 C-4 6.01 -4 5.02 -4 4 C-3.34 4 -2.68 4 -2 4 C-2 3.34 -2 2.68 -2 2 C-1.34 2 -0.68 2 0 2 C0 1.34 0 0.68 0 0 Z " fill="#DCECF0" transform="translate(493,322)"/>
<path d="M0 0 C0.33 0 0.66 0 1 0 C0.67 2.64 0.34 5.28 0 8 C-0.99 8.33 -1.98 8.66 -3 9 C-2.01 6.03 -1.02 3.06 0 0 Z " fill="#CADDE4" transform="translate(512,231)"/>
<path d="M0 0 C2 2 2 2 2 6 C0.35 5.67 -1.3 5.34 -3 5 C-2.01 3.35 -1.02 1.7 0 0 Z " fill="#2E5770" transform="translate(259,101)"/>
</svg>
